<?xml version="1.0" encoding="UTF-8"?>
<svg xmlns="http://www.w3.org/2000/svg" viewBox="106 409 279 171">
    <path d="m 2024.13,352.488 c 0,67.543 0.04,119.293 124.73,134 l 46.83,-46.578 c -31.41,-1.512 -62.84,-4.148 -93.95,-8.199 -29.71,-3.949 -48.48,-31.91 -56.17,-56.762 -11.16,-36.07 -19.54,-92.129 -21.12,-138.89 h -0.32 z m -29.22,81.653 c -1.03,-6.45 -1.89,-15.743 -2.8,-26.832 -0.82,-11.11 -1.41,-24.098 -1.55,-37.938 -0.08,-13.851 0.21,-28.82 0.26,-43.781 -0.04,-29.91 -0.88,-59.809 -2.15,-82.238 -0.56,-11.223 -1.46,-20.563 -1.89,-27.102 -0.53,-6.539 -0.97,-10.281 -0.97,-10.281 0,0 -0.44,3.742 -0.97,10.281 -0.43,6.539 -1.34,15.879 -1.9,27.102 -1.27,22.429 -2.11,52.328 -2.14,82.238 0.05,7.48 0.11,14.949 0.16,22.308 0.02,7.493 0.34,14.571 0.76,21.75 0.86,14.172 2.55,27.282 4.67,38.411 2.05,11.14 4.74,20.222 6.62,26.519 1.99,6.293 3.56,9.723 3.56,9.723 0,0 -0.72,-3.692 -1.66,-10.16 z m -767.64,76.23 c -9.65,1.578 -18.92,1.957 -27.42,2.91 -8.51,0.719 -16.31,1.75 -23.26,2.098 -6.94,0.48 -13,0.902 -17.99,1.242 -9.99,0.809 -15.7,1.277 -15.7,1.277 0,0 5.72,0.243 15.73,0.672 10.01,0.11 24.37,1.289 41.57,0.352 8.6,-0.442 17.96,-0.274 27.8,-1.274 9.84,-0.957 20.29,-1.449 30.98,-3.109 5.35,-0.891 10.78,-1.789 16.28,-2.699 5.52,-0.82 11.08,-1.84 16.58,-3.43 5.54,-1.422 11.12,-2.851 16.72,-4.289 5.56,-1.633 11,-3.812 16.51,-5.711 l 8.2,-3.07 7.88,-3.91 c 5.17,-2.739 10.65,-4.821 15.35,-8.328 4.77,-3.332 9.85,-6.141 14.12,-9.954 4.2,-3.898 8.58,-7.5 12.4,-11.519 3.5,-4.34 7.11,-8.481 10.27,-12.789 2.66,-4.629 5.26,-9.16 7.8,-13.57 2.02,-4.649 3.76,-9.258 5.54,-13.649 1.73,-4.41 2.51,-8.949 3.72,-13.152 2.37,-8.418 2.83,-16.457 3.69,-23.43 0.26,-7.051 0.75,-13.168 0.67,-18.168 -0.35,-10.019 -0.55,-15.75 -0.55,-15.75 0,0 -0.51,5.707 -1.4,15.688 -0.4,4.992 -1.49,10.953 -2.4,17.769 -0.52,3.41 -1.55,6.961 -2.36,10.723 -0.86,3.769 -1.58,7.75 -3.07,11.699 -1.42,3.949 -2.41,8.262 -4.31,12.34 -1.93,4.051 -3.93,8.242 -5.99,12.551 -2.6,3.961 -5.28,8.039 -8.01,12.199 -3.26,3.738 -6.58,7.558 -9.97,11.449 -3.65,3.609 -7.86,6.813 -11.82,10.32 -4.07,3.403 -8.96,5.891 -13.4,9 -4.37,3.243 -9.66,5.153 -14.56,7.7 l -7.49,3.632 -7.89,2.848 c -5.28,1.852 -10.44,4.02 -15.79,5.641 -5.42,1.449 -10.81,2.89 -16.16,4.32 -10.64,3.09 -21.58,4.539 -31.93,6.809 -10.45,1.832 -20.69,3.023 -30.34,4.562 z m -71.5,40.699 c 8.23,2.149 19.92,5.629 34.09,9.09 14.17,3.449 30.63,7.789 48.4,11.871 17.74,4.188 36.74,8.289 55.73,12.41 19.04,3.93 38.07,7.879 55.99,11.239 17.89,3.48 34.71,6.16 49.06,8.75 14.36,2.582 26.45,4.121 34.85,5.488 8.45,1.152 13.28,1.812 13.28,1.812 0,0 -4.68,-1.359 -12.88,-3.718 -8.23,-2.16 -19.91,-5.653 -34.08,-9.102 -14.17,-3.449 -30.64,-7.808 -48.4,-11.871 -17.74,-4.187 -36.74,-8.277 -55.74,-12.41 -19.04,-3.918 -38.07,-7.859 -55.99,-11.219 -17.89,-3.469 -34.71,-6.172 -49.06,-8.75 -14.36,-2.582 -26.45,-4.129 -34.85,-5.5 -8.45,-1.148 -13.27,-1.808 -13.27,-1.808 0,0 4.68,1.347 12.87,3.718 z m 308.48,11.25 c -6.95,-0.351 -13.91,-0.629 -20.8,-1.129 -27.72,-2.113 -45.03,-26.543 -52.01,-48.703 -0.33,-1.047 -0.63,-2.308 -0.96,-3.41 -3.2,0.25 -6.4,0.512 -9.6,0.731 -16.94,11.472 -36.88,21.019 -60.04,28.582 l 142.23,30.621 z m 332.23,387.481 -25.27,-3.41 c 3.1,5.64 5.76,11.75 7.62,18.398 0.54,1.922 0.98,3.832 1.38,5.75 z m -41.05,-23.332 c 3.03,2.64 5.93,5.519 8.57,8.832 l 35.39,4.769 V 926.16 Z M 2277.85,574.82 c 4.73,-1.14 11.57,-2.511 19.62,-4.64 16.13,-4.129 37.37,-10.442 58.36,-17.508 20.96,-7.141 41.67,-15.031 56.99,-21.57 7.69,-3.192 13.95,-6.282 18.4,-8.243 4.41,-2.058 6.89,-3.371 6.89,-3.371 0,0 -2.76,0.473 -7.52,1.524 -4.73,1.148 -11.57,2.5 -19.62,4.636 -16.14,4.122 -37.38,10.442 -58.36,17.524 -20.96,7.137 -41.66,15.039 -56.99,21.578 -7.68,3.199 -13.94,6.27 -18.39,8.23 -4.42,2.059 -6.9,3.372 -6.9,3.372 0,0 2.76,-0.481 7.52,-1.532 z M 2058.03,160.27 c -1.83,16.011 -3.08,32.199 -3.55,47.511 l 56.91,-29.972 -56.34,68.871 c 0.84,14.652 2.29,29.8 4.22,44.582 l 58.64,-30.891 -53.25,65.09 c 2.9,15.391 6.2,29.379 9.67,40.598 0.46,1.48 1.05,3.171 1.75,4.961 l 53.32,-28.09 -40.45,49.461 c 4.58,4.89 10.14,8.609 16.68,9.48 48.37,6.289 96.9,9.438 145.43,9.438 39.43,0 78.85,-2.188 118.19,-6.348 l -38.77,-47.402 67.92,35.793 c -8.26,-15.051 -14.22,-32.411 -18.48,-50.954 l -0.19,0.223 -57.19,-69.922 50.33,26.52 c -1.93,-18.051 -2.87,-36.297 -3.26,-53.828 l -47.07,-57.551 46.85,24.691 c 0.1,-16.07 0.55,-33.031 1.72,-50.16 l -48.57,-59.391 51.77,27.282 c 1.87,-13.852 4.44,-27.403 7.88,-40.3206 -27.71,-7.2812 -54.41,-12.2812 -79.79,-15.4805 -0.49,1.5196 -0.97,2.9375 -1.46,4.5977 -1.88,5.8008 -3.52,12.5625 -5.42,19.8906 -3.5,14.7618 -6.8,32.2808 -9.12,51.3008 -1.23,9.5 -1.93,19.398 -2.84,29.461 -0.35,10.078 -1.17,20.34 -1.18,30.629 0.14,10.269 -0.32,20.601 0.3,30.73 0.56,10.129 0.67,20.16 1.58,29.801 0.89,9.66 1.74,18.988 2.55,27.848 1.21,8.82 2.35,17.152 3.4,24.851 1.84,15.469 4.81,28.11 6.3,37.078 1.67,8.942 2.62,14.051 2.62,14.051 0,0 -1.34,-5.019 -3.69,-13.801 -2.18,-8.828 -6.13,-21.269 -9.16,-36.597 -1.66,-7.653 -3.45,-15.93 -5.34,-24.692 -1.5,-8.839 -3.09,-18.168 -4.73,-27.82 -1.67,-9.66 -2.57,-19.758 -3.93,-29.98 -1.41,-10.231 -1.76,-20.707 -2.7,-31.18 -0.8,-10.469 -0.78,-20.988 -1.2,-31.348 0.13,-10.359 0.06,-20.59 0.57,-30.48 0.87,-19.801 2.9,-38.281 5.38,-54.0901 1.4,-7.8906 2.59,-15.1523 4.12,-21.539 0.1,-0.4531 0.2,-0.8203 0.3,-1.2735 -15.86,-1.3867 -31.13,-2.1171 -45.69,-2.3086 -1.1,3.25 -2.26,6.7696 -3.43,10.8711 -1.92,5.9805 -3.54,12.9375 -5.54,20.4691 -1.6,7.64 -3.71,15.851 -5.14,24.742 -1.73,8.828 -3.11,18.226 -4.37,28.008 -1.52,9.742 -2.05,19.941 -3.17,30.269 -0.62,10.352 -1.23,20.91 -1.58,31.481 0.01,10.582 -0.35,21.191 -0.03,31.621 0.46,10.429 0.65,20.73 1.3,30.679 0.84,9.95 1.65,19.559 2.42,28.68 0.93,9.102 2.25,17.66 3.23,25.61 1.79,15.941 4.68,28.98 6.2,38.218 1.65,9.223 2.6,14.492 2.6,14.492 0,0 -1.4,-5.16 -3.86,-14.191 -2.33,-9.078 -6.37,-21.898 -9.56,-37.68 -1.69,-7.859 -3.77,-16.359 -5.52,-25.429 -1.58,-9.11 -3.25,-18.719 -4.97,-28.668 -1.54,-9.981 -2.66,-20.364 -4.06,-30.903 -1.25,-10.558 -1.84,-21.359 -2.8,-32.148 -0.59,-10.801 -0.92,-21.641 -1.22,-32.332 0.2,-10.68 -0.15,-21.238 0.52,-31.43 0.4,-10.219 0.99,-20.097 1.97,-29.449 0.68,-9.391 2.12,-18.199 3.1,-26.3906 1.41,-8.1485 2.48,-15.6485 3.97,-22.2578 0.27,-1.4102 0.57,-2.6133 0.85,-3.9414 -13.74,0.4687 -26.68,1.3711 -38.77,2.5507 -0.69,2.0899 -1.39,4.2188 -2.09,6.5977 -1.89,5.8008 -3.53,12.5625 -5.43,19.8906 -3.49,14.7618 -6.8,32.2808 -9.12,51.3008 -1.23,9.5 -1.92,19.398 -2.83,29.461 -0.36,10.078 -1.17,20.34 -1.18,30.629 0.13,10.269 -0.33,20.601 0.29,30.73 0.56,10.129 0.67,20.16 1.59,29.801 0.88,9.66 1.73,18.988 2.55,27.848 1.2,8.82 2.34,17.152 3.4,24.851 1.84,15.469 4.81,28.11 6.3,37.078 1.66,8.942 2.61,14.051 2.61,14.051 0,0 -1.34,-5.019 -3.69,-13.801 -2.17,-8.828 -6.12,-21.269 -9.16,-36.597 -1.65,-7.653 -3.44,-15.93 -5.34,-24.692 -1.5,-8.839 -3.09,-18.168 -4.73,-27.82 -1.66,-9.66 -2.56,-19.758 -3.92,-29.98 -1.42,-10.231 -1.77,-20.707 -2.7,-31.18 -0.8,-10.469 -0.79,-20.988 -1.21,-31.348 0.13,-10.359 0.06,-20.59 0.57,-30.48 0.88,-19.801 2.9,-38.281 5.38,-54.0901 1.25,-7.0117 2.35,-13.4218 3.65,-19.2617 -33.24,4.6914 -57.45,10.9805 -69.85,14.4727 -2.19,8.75 -4.25,18.5001 -6.13,28.8081 l 48.94,-25.7886 z m 648.82,369.859 -29.06,-38.891 53.18,25.102 c -5.63,-11.289 -9.82,-23.988 -12.91,-37.449 l -2.26,2.757 -44.48,-59.527 40.73,19.219 c -1.24,-12.352 -1.9,-24.762 -2.25,-36.84 l -38.48,-51.5 38.18,18.012 c 0.09,-11.133 0.41,-22.774 1.12,-34.543 l -39.3,-52.59 42.49,20.051 c 1.48,-10.532 3.48,-20.828 6.1,-30.668 -21.76,-5.723 -42.77,-9.723 -62.77,-12.34 -0.44,1.316 -0.88,2.566 -1.32,4.027 -1.57,4.66 -2.94,10.121 -4.54,16.039 -2.94,11.934 -5.75,26.102 -7.78,41.532 -1.06,7.699 -1.7,15.73 -2.51,23.902 -0.36,8.18 -1.1,16.519 -1.18,24.879 0.03,8.347 -0.42,16.738 0.01,24.988 0.39,8.242 0.4,16.402 1.08,24.25 0.64,7.871 1.27,15.473 1.87,22.68 0.92,7.191 1.79,13.992 2.59,20.261 1.39,12.61 3.71,22.93 4.87,30.25 1.29,7.301 2.03,11.469 2.03,11.469 0,0 -1.13,-4.078 -3.11,-11.219 -1.83,-7.179 -5.14,-17.3 -7.73,-29.769 -1.4,-6.223 -2.92,-12.961 -4.52,-20.09 -1.29,-7.199 -2.65,-14.801 -4.06,-22.66 -0.72,-3.961 -1.28,-8.012 -1.81,-12.133 -1.35,10.844 -3.08,20.813 -5.29,29.481 -3.82,15.023 -15.64,39.32 -37.59,49.941 0.82,4.891 1.62,9.211 2.17,12.789 1.28,7.531 2.01,11.832 2.01,11.832 0,0 -1.19,-4.199 -3.26,-11.543 -0.9,-3.359 -2.11,-7.43 -3.4,-11.988 -4.13,1.738 -8.55,3.058 -13.37,3.699 -11.2,1.461 -22.44,2.731 -33.7,3.832 0.88,4.949 1.39,7.828 1.39,7.828 0,0 -0.79,-2.859 -2.15,-7.769 -13.18,1.281 -26.39,2.23 -39.6,3 l -15.48,20.73 c 3.4,3.149 7.32,5.551 11.89,6.16 39.4,5.129 78.93,7.692 118.46,7.692 31.27,0 62.54,-1.672 93.74,-4.883 z M 2555.43,182.191 c -24.57,-6.461 -48.28,-10.929 -70.84,-13.832 -0.46,1.411 -0.92,2.75 -1.39,4.301 -1.71,5.211 -3.22,11.281 -4.95,17.871 -3.21,13.27 -6.26,29.028 -8.42,46.16 -0.94,7.047 -1.56,14.368 -2.23,21.778 -0.27,15.859 -0.79,31.66 -1.7,46.801 -0.03,4.449 -0.02,8.89 0.23,13.281 0.47,9.129 0.53,18.179 1.32,26.879 0.76,8.718 1.5,17.152 2.19,25.14 1.06,7.961 2.05,15.489 2.98,22.43 1.6,13.969 4.23,25.391 5.54,33.488 1.47,8.082 2.31,12.703 2.31,12.703 0,0 -1.23,-4.531 -3.38,-12.453 -2,-7.957 -5.61,-19.179 -8.41,-33.008 -1.52,-6.89 -3.17,-14.359 -4.91,-22.269 -0.96,-5.512 -1.97,-11.281 -2.99,-17.16 -1.12,6.82 -2.35,13.34 -3.84,19.187 -4.43,17.403 -18.9,46.481 -46.18,55.742 0.37,2.102 0.73,4.129 1.02,5.918 1.46,8.332 2.29,13.09 2.29,13.09 0,0 -1.29,-4.648 -3.55,-12.797 -0.45,-1.711 -0.99,-3.652 -1.56,-5.652 -2.72,0.82 -5.53,1.512 -8.51,1.91 -14.9,1.942 -29.87,3.492 -44.85,4.852 0.29,1.621 0.47,2.64 0.47,2.64 0,0 -0.27,-1.011 -0.71,-2.621 -17.04,1.551 -34.12,2.668 -51.19,3.45 l -12.5,15.96 c 3.97,3.969 8.66,6.989 14.17,7.719 43.65,5.68 87.45,8.52 131.25,8.52 35.13,0 70.26,-1.91 105.32,-5.571 l -33.64,-42.929 59.99,30.019 c -6.81,-13.027 -11.75,-27.918 -15.38,-43.707 l -1.27,1.559 -50.51,-64.461 45.28,22.66 c -1.57,-15.07 -2.36,-30.258 -2.73,-44.937 l -42.55,-54.313 42.29,21.172 c 0.1,-13.492 0.48,-27.66 1.41,-41.981 l -43.7,-55.769 46.89,23.457 c 1.67,-12.09 3.93,-23.93 6.94,-35.227 z m 51.55,66.457 c -1.11,-4.179 -2.44,-8.058 -3.98,-11.558 -2.97,-7 -6.95,-12.34 -10.6,-15.039 -0.74,-0.59 -1.41,-0.981 -2.05,-1.352 0.02,-0.597 0.05,-1.25 0.08,-1.847 0.98,-20.372 1.63,-33.954 1.63,-33.954 0,0 -1.02,3.274 -2.39,9.082 -1.27,5.829 -3.3,14.149 -4.95,24.25 -1.8,10.079 -3.31,21.942 -4.59,34.668 -1.2,12.75 -1.97,26.391 -2.25,40.063 -0.13,13.66 0.01,27.34 1.02,40.129 0.31,6.398 0.94,12.57 1.66,18.398 0.62,5.84 1.28,11.352 2.2,16.41 1.5,10.141 3.48,18.473 4.85,24.293 1.37,5.821 2.28,9.098 2.28,9.098 0,0 -0.04,-3.437 -0.35,-9.379 -0.17,-2.961 -0.38,-6.558 -0.62,-10.691 -0.08,-4.149 -0.16,-8.809 -0.42,-13.867 -0.33,-10.153 -0.73,-21.954 -0.77,-34.614 -0.17,-6.316 -0.05,-12.847 -0.06,-19.488 -0.08,-6.641 0.07,-13.379 0.23,-20.121 0.07,-13.488 0.68,-26.981 1.02,-39.641 0.48,-10.988 0.92,-21.258 1.32,-30.429 0.16,0.222 0.32,0.371 0.48,0.609 2.35,3.301 4.41,8.742 5.86,15.531 1.41,6.801 2.34,14.922 2.73,23.742 0.37,4.368 0.19,8.981 0.42,13.598 -0.01,4.75 0.14,9.25 -0.05,14.141 0.11,9.761 -0.27,19.011 -0.39,28.031 -0.25,8.918 -0.69,17.211 -1.21,24.34 -0.59,7.109 -1.31,13.027 -2.1,17.16 -0.75,4.129 -1.67,6.418 -1.67,6.418 0,0 1.79,-1.77 3.87,-5.617 2.1,-3.813 4.57,-9.582 6.58,-16.731 2.08,-7.133 3.82,-15.633 4.91,-24.769 0.45,-4.582 1.15,-9.282 1.29,-14.141 0.27,-4.883 0.46,-9.75 0.53,-14.551 0.05,-4.769 -0.23,-9.929 -0.36,-14.691 -0.29,-4.867 -0.79,-9.629 -1.49,-14.25 -0.56,-4.617 -1.63,-9.051 -2.66,-13.231 z M 2420.23,103.031 c -1.36,6.457 -3.52,15.68 -5.28,26.879 -1.92,11.18 -3.55,24.309 -4.92,38.418 -0.52,7.063 -1.3,14.352 -1.6,21.793 -0.3,7.438 -0.74,15 -0.83,22.559 -0.16,15.129 -0.01,30.281 1.07,44.441 0.32,7.09 0.99,13.918 1.76,20.391 0.66,6.468 1.36,12.57 2.35,18.168 1.6,11.242 3.69,20.48 5.16,26.929 1.46,6.45 2.43,10.102 2.43,10.102 0,0 -0.09,-3.801 -0.49,-10.383 -0.22,-3.277 -0.49,-7.258 -0.79,-11.84 -0.12,-4.578 -0.26,-9.75 -0.58,-15.359 -0.43,-11.238 -0.93,-24.328 -1.01,-38.348 -0.21,-7.011 -0.1,-14.25 -0.11,-21.621 -0.1,-7.351 0.05,-14.832 0.23,-22.308 0.09,-14.954 0.77,-29.903 1.2,-43.942 0.59,-12.379 1.14,-23.949 1.63,-34.23 0.31,0.379 0.61,0.679 0.93,1.14 2.67,3.621 5.06,9.649 6.74,17.18 1.66,7.551 2.77,16.559 3.25,26.352 0.42,4.859 0.26,9.976 0.52,15.109 -0.01,5.258 0.16,10.289 -0.04,15.699 0.11,10.809 -0.32,21.102 -0.51,31.09 -0.32,9.898 -0.87,19.102 -1.53,26.988 -0.74,7.883 -1.63,14.442 -2.58,18.992 -0.9,4.571 -1.96,7.079 -1.96,7.079 0,0 1.93,-1.989 4.17,-6.27 2.25,-4.25 4.89,-10.641 7.04,-18.559 2.22,-7.91 4.08,-17.308 5.24,-27.429 0.49,-5.071 1.23,-10.281 1.38,-15.653 0.29,-5.378 0.49,-10.777 0.56,-16.097 0.07,-5.289 -0.24,-10.973 -0.37,-16.25 -0.32,-5.383 -0.84,-10.653 -1.59,-15.75 -0.61,-5.11 -1.75,-10.012 -2.86,-14.633 -1.21,-4.617 -2.63,-8.906 -4.29,-12.777 -3.21,-7.75 -7.52,-13.672 -11.49,-16.7 -0.9,-0.73 -1.73,-1.25 -2.5,-1.679 0.03,-0.653 0.06,-1.352 0.09,-1.981 1.27,-22.551 2.12,-37.5896 2.12,-37.5896 0,0 -1.08,3.6289 -2.54,10.0896 z m 350.5,254.989 c -0.26,-4.399 -0.74,-8.711 -1.39,-12.891 -1.2,-8.34 -3.33,-16.117 -6.19,-22.418 -2.75,-6.34 -6.44,-11.152 -9.8,-13.563 -0.59,-0.449 -1.12,-0.738 -1.65,-1.039 0.02,-0.57 0.05,-1.179 0.07,-1.73 0.72,-18.41 1.19,-30.68 1.19,-30.68 0,0 -0.96,2.949 -2.24,8.192 -1.19,5.25 -3.11,12.75 -4.65,21.859 -1.69,9.102 -3.11,19.801 -4.3,31.301 -1.13,11.508 -1.83,23.828 -2.09,36.168 -0.11,12.34 0.02,24.691 0.98,36.242 0.28,5.777 0.89,11.348 1.56,16.617 0.58,5.274 1.21,10.254 2.07,14.813 1.41,9.148 3.29,16.66 4.56,21.91 1.29,5.238 2.16,8.199 2.16,8.199 0,0 0.01,-3.109 -0.22,-8.48 -0.43,-5.348 -0.48,-13.032 -0.76,-22.18 -0.23,-9.16 -0.54,-19.809 -0.54,-31.219 -0.14,-5.699 0,-11.601 -0.01,-17.582 -0.07,-5.988 0.07,-12.07 0.22,-18.148 0.05,-12.172 0.59,-24.332 0.86,-35.762 0.38,-9.707 0.73,-18.797 1.04,-26.949 0.03,0.039 0.05,0.058 0.07,0.101 2.07,3 3.83,7.918 5.06,14.028 1.2,6.132 1.97,13.441 2.28,21.371 0.31,3.941 0.12,8.09 0.33,12.25 -0.02,4.281 0.1,8.32 -0.08,12.738 0.12,8.812 -0.22,17.121 -0.28,25.262 -0.18,8.039 -0.51,15.511 -0.9,21.941 -0.47,6.41 -1.03,11.77 -1.69,15.508 -0.61,3.75 -1.39,5.84 -1.39,5.84 0,0 1.65,-1.578 3.6,-5.028 1.95,-3.429 4.27,-8.632 6.15,-15.082 1.95,-6.437 3.59,-14.121 4.61,-22.379 0.43,-4.152 1.1,-8.39 1.22,-12.781 0.25,-4.41 0.43,-8.82 0.5,-13.148 0.04,-4.301 -0.23,-8.981 -0.35,-13.281 z m -537.31,132.71 c 13.68,0 25.64,9.231 29.12,22.469 2.24,8.52 0.54,17.301 -4.11,24.281 l 111.51,-37.339 c -22.74,-1.461 -45.46,-3.661 -67.99,-6.59 -19.41,-2.582 -33.73,-15.871 -43.2,-31.473 l -28.77,28.621 c 1.17,0.012 2.26,0.031 3.44,0.031 z m -790.88,-61.55 57.47,25.859 c -6.92,-12.699 -11.96,-27.391 -15.63,-43.098 l -0.85,1.11 -31.41,-37.77 c -0.95,19.578 -4.15,37.52 -9.58,53.899 z m 267.33,-41.942 c -0.18,7.34 -0.5,14.223 -0.86,20.141 -0.47,6.41 -1.03,11.75 -1.67,15.492 -0.6,3.75 -1.34,5.848 -1.34,5.848 0,0 1.62,-1.598 3.56,-5.051 1.93,-3.43 4.24,-8.609 6.12,-15.047 1.87,-6.172 3.45,-13.512 4.47,-21.383 z m 4.42,-75.359 c -2.76,-6.328 -6.42,-11.168 -9.86,-13.508 -0.62,-0.449 -1.16,-0.73 -1.71,-1.019 0.02,-0.602 0.05,-1.25 0.07,-1.84 0.7,-18.41 1.17,-30.692 1.17,-30.692 0,0 -3.6,11.852 -6.87,30.071 -1.69,9.109 -3.11,19.808 -4.3,31.308 -1.14,11.512 -1.83,23.84 -2.11,36.192 -0.1,12.339 0.01,24.711 0.96,36.257 0.71,11.563 2.1,22.313 3.63,31.454 1.42,9.16 3.29,16.679 4.57,21.918 0.01,0.031 0.02,0.058 0.02,0.082 l 2.05,3.308 c -0.03,-1.07 -0.07,-2.289 -0.14,-3.672 -0.43,-5.347 -0.47,-13.039 -0.77,-22.187 -0.22,-9.16 -0.53,-19.821 -0.53,-31.242 -0.15,-5.7 0.02,-11.598 0,-17.59 -0.07,-5.989 0.09,-12.071 0.24,-18.16 0.06,-12.168 0.59,-24.34 0.88,-35.77 0.37,-9.711 0.72,-18.82 1.03,-26.969 0.06,0.078 0.11,0.129 0.16,0.211 2.13,2.93 3.86,7.86 5.08,13.949 0.63,3.04 1.01,6.43 1.45,9.981 0.11,0.98 0.13,2.078 0.21,3.078 h 9.57 c -0.36,-1.598 -0.73,-3.18 -1.14,-4.711 -1,-3.777 -2.22,-7.297 -3.66,-10.449 z m -382.03,-65.777 c -0.05,1.937 -0.11,3.937 -0.15,5.859 -0.31,9.891 -0.89,19.07 -1.56,26.961 -0.73,7.859 -1.61,14.406 -2.55,18.957 -0.89,4.57 -1.9,7.09 -1.9,7.09 0,0 1.89,-2.02 4.12,-6.289 2.23,-4.239 4.86,-10.621 7.01,-18.532 2.22,-7.878 4.11,-17.269 5.26,-27.367 0.23,-2.203 0.49,-4.429 0.72,-6.679 z m 142.56,48.058 c 0.1,-13.781 0.49,-28.308 1.45,-43.019 l -23.76,-28.559 v 61.547 z m -0.71,212.192 c 0.45,-2.563 1.18,-5.012 2.08,-7.372 -8.59,1.372 -17.19,2.622 -25.79,3.782 l -16.36,23.16 c 3.34,2.828 7.16,4.906 11.61,5.246 7.94,0.582 15.9,0.934 23.86,1.301 z m 134.22,-250.84 c -0.47,1.398 -0.93,2.75 -1.4,4.297 -1.58,4.679 -2.91,10.152 -4.54,16.07 -1.06,4.422 -2.12,9.223 -3.15,14.203 l 39.51,63.617 21.75,9.172 c 0.09,-11.441 0.41,-23.441 1.16,-35.59 l -39.34,-49.633 42.45,17.903 c 1.49,-10.699 3.49,-21.211 6.14,-31.289 -21.69,-4.461 -42.63,-7.262 -62.58,-8.75 z m -41.93,10.5 h 1.16 c 4.97,0 9.74,1.297 14,3.547 0.93,-5.52 1.75,-10.68 2.8,-15.258 -6.2,-0.16 -12.26,-0.18 -18.22,-0.11 0.1,3.938 0.19,7.868 0.26,11.821 z m -22.29,199.879 c -1.58,2.371 -3.32,4.679 -5.19,6.937 l 5.34,-0.078 c -0.14,-1.391 -0.42,-2.73 -0.42,-4.16 0,-0.918 0.21,-1.789 0.27,-2.699 z m -14.27,-139.68 c -0.25,5.769 -0.54,11.301 -0.9,16.148 -0.59,7.102 -1.31,13.02 -2.08,17.153 -0.74,4.129 -1.61,6.429 -1.61,6.429 0,0 1.74,-1.8 3.82,-5.64 2.07,-3.813 4.53,-9.571 6.54,-16.699 1.5,-5.133 2.73,-11.114 3.76,-17.391 z m 56.89,170.219 c 15.37,0 27.84,-12.461 27.84,-27.84 0,-15.379 -12.47,-27.84 -27.84,-27.84 -15.38,0 -27.84,12.461 -27.84,27.84 0,15.379 12.46,27.84 27.84,27.84 z m -20.78,-145.86 c -1.03,32.852 -3.49,64.399 -9.25,87.321 -0.01,0.058 -0.04,0.14 -0.05,0.199 7.45,-7.36 17.59,-11.922 28.79,-12.262 -0.57,-3.117 -1.13,-6.269 -1.71,-9.488 -1.36,-7.879 -2.22,-16.102 -3.39,-24.442 -0.96,-7.039 -1.43,-14.238 -2.04,-21.449 z m 75.03,120.828 -50.25,-80.918 c 0.01,0.231 0,0.469 0.01,0.7 0.37,8.242 0.44,16.39 1.04,24.25 0.31,3.691 0.61,7.308 0.91,10.879 20.81,2.929 36.93,20.671 36.93,42.281 0,1.019 -0.23,1.98 -0.3,2.98 z M 1486.36,183.719 c -24.51,-5.051 -48.15,-8.168 -70.65,-9.778 -0.49,1.481 -0.96,2.887 -1.45,4.528 -0.76,2.301 -1.46,4.82 -2.17,7.429 h 10.33 c 13.4,0 24.63,8.821 28.52,20.93 l 28.44,12.801 c 1.67,-12.289 3.95,-24.359 6.98,-35.91 z m 37.06,37.883 c -0.77,-0.582 -1.46,-0.961 -2.12,-1.313 0.02,-0.648 0.06,-1.348 0.08,-1.98 0.97,-20.387 1.61,-33.969 1.61,-33.969 0,0 -3.83,13.148 -7.31,33.351 -1.8,10.09 -3.32,21.95 -4.59,34.688 -1.22,12.75 -1.98,26.402 -2.27,40.07 -0.13,13.672 -0.02,27.36 1,40.16 0.31,6.403 0.92,12.571 1.65,18.411 0.63,5.851 1.27,11.359 2.2,16.421 1.51,10.149 3.48,18.489 4.86,24.309 1.37,5.809 2.3,9.102 2.3,9.102 0,0 -0.05,-3.442 -0.37,-9.391 -0.52,-5.922 -0.67,-14.43 -1.06,-24.57 -0.32,-10.153 -0.71,-21.961 -0.76,-34.621 -0.17,-6.329 -0.02,-12.86 -0.04,-19.508 -0.08,-6.641 0.08,-13.383 0.24,-20.133 0.08,-13.5 0.68,-26.988 1.04,-39.66 0.48,-10.981 0.92,-21.25 1.32,-30.41 0.19,0.25 0.38,0.41 0.57,0.703 2.43,3.207 4.45,8.679 5.89,15.429 0.74,3.368 1.2,7.137 1.73,11.09 0.45,3.981 0.67,8.199 0.93,12.598 0.08,1.172 0.06,2.441 0.1,3.633 h 10.81 c -0.19,-1.563 -0.37,-3.121 -0.57,-4.653 -0.57,-4.621 -1.56,-9.05 -2.63,-13.218 -1.09,-4.172 -2.39,-8.059 -3.95,-11.551 -2.97,-6.988 -6.92,-12.36 -10.66,-14.988 z m -106.06,254.66 c 18.77,-1.981 37.52,-4.551 56.26,-7.571 l -31.59,-37.992 c -5.78,16.871 -13.97,32.063 -24.67,45.563 z m 35.15,-115.551 25.34,11.398 c -1.62,-15.328 -2.43,-30.847 -2.79,-45.828 L 1452.51,299.16 Z M 1389.2,185.898 c 0.8,-4.687 1.59,-9.179 2.54,-13.199 -8.13,-0.219 -16.05,-0.238 -23.81,-0.129 0.14,4.43 0.26,8.871 0.36,13.328 z m -73.39,-45.16 c -1.92,11.184 -3.55,24.321 -4.92,38.442 -1.3,14.121 -2.14,29.242 -2.45,44.371 -0.15,15.14 -0.03,30.301 1.04,44.469 0.34,7.089 0.98,13.929 1.76,20.402 0.67,6.469 1.35,12.578 2.34,18.18 1.61,11.25 3.7,20.5 5.18,26.949 1.47,6.449 2.44,10.097 2.44,10.097 0,0 -0.09,-3.796 -0.51,-10.378 -0.22,-3.29 -0.48,-7.27 -0.79,-11.848 -0.12,-4.594 -0.27,-9.762 -0.59,-15.371 -0.35,-5.61 -0.36,-11.711 -0.6,-18.141 -0.27,-6.43 -0.31,-13.211 -0.4,-20.23 -0.21,-7.008 -0.08,-14.258 -0.09,-21.629 -0.1,-7.36 0.07,-14.84 0.24,-22.321 0.1,-14.968 0.78,-29.921 1.22,-43.968 0.59,-12.364 1.14,-23.91 1.63,-34.192 0.35,0.399 0.68,0.719 1.03,1.211 2.76,3.528 5.1,9.578 6.78,17.078 0.87,3.75 1.42,7.922 2.03,12.309 0.37,3.07 0.57,6.422 0.79,9.73 h 10.15 c -0.62,-3.929 -1.39,-7.75 -2.3,-11.359 -1.16,-4.621 -2.57,-8.918 -4.24,-12.777 -3.21,-7.742 -7.49,-13.692 -11.56,-16.641 -0.93,-0.723 -1.79,-1.23 -2.58,-1.641 0.03,-0.691 0.07,-1.441 0.1,-2.121 1.26,-22.57 2.09,-37.609 2.09,-37.609 0,0 -4.08,14.602 -7.79,36.988 z m 256,746.883 c 32.22,0.949 64.44,1.238 96.67,1.859 l 96.66,0.75 c 32.22,0.301 64.44,-0.039 96.66,-0.019 32.22,-0.141 64.44,0.008 96.66,-0.352 l 0.99,-0.007 0.86,-0.372 70.11,-29.421 c 23.37,-9.809 46.78,-19.539 69.99,-29.731 l 69.75,-30.297 c 23.12,-10.402 46.36,-20.519 69.37,-31.199 -23.84,8.668 -47.45,17.887 -71.18,26.84 l -70.8,27.75 c -23.64,9.148 -47.09,18.769 -70.57,28.308 l -69.54,28.25 c -9.95,0.032 -19.91,0.149 -29.86,0.258 l -83.3,-111.406 12.56,-124.91 -65.99,-134.473 -119.28,1.66 -53.4,116.352 26.7,-115.973 -104.79,1.461 -49.43,198.981 20.91,-186.848 -33.66,191.027 z m 665.96,-216.019 c 5.27,-1.571 8.26,-2.602 8.26,-2.602 0,0 -3.16,0.16 -8.64,0.68 -5.46,0.629 -13.31,1.218 -22.64,2.468 -18.68,2.332 -43.43,6.301 -68.02,11.051 -24.58,4.821 -49,10.43 -67.2,15.262 -9.11,2.348 -16.62,4.73 -21.92,6.199 -5.27,1.559 -8.26,2.59 -8.26,2.59 0,0 3.15,-0.16 8.63,-0.691 5.46,-0.618 13.32,-1.231 22.65,-2.469 18.68,-2.34 43.42,-6.301 68.02,-11.039 24.58,-4.821 49,-10.41 67.2,-15.25 9.11,-2.34 16.62,-4.731 21.92,-6.199 z m -270.51,-153.274 5.89,28.203 12.65,56.199 c 8.71,36.891 17.72,73.711 27.29,110.379 -8.45,24.571 -16.65,49.219 -24.35,74.051 -3.92,12.649 -8.06,25.231 -11.8,37.942 -3.68,12.738 -7.58,25.398 -10.99,38.226 5.29,-12.168 10.1,-24.519 15.13,-36.777 4.97,-12.289 9.54,-24.723 14.33,-37.071 9.57,-24.699 18.63,-49.582 27.43,-74.55 l 0.48,-1.371 -0.36,-1.457 c -9.23,-37.262 -19.03,-74.372 -29.09,-111.422 l -15.62,-55.442 -8.17,-27.617 -8.31,-27.601 c 1.59,9.468 3.54,18.91 5.49,28.308 z m -81.53,229.844 c 9.54,-3.223 19.06,-6.5 28.5,-9.961 18.94,-6.813 37.66,-14.141 56.31,-21.641 l 9.89,-3.968 -9.36,-5.063 c -34.65,-18.719 -69.65,-36.789 -106.07,-52.25 29.82,20.352 60.84,38.492 92.22,55.973 -15.4,6.34 -30.75,12.789 -45.94,19.648 -9.19,4.078 -18.31,8.352 -27.41,12.66 -9,4.551 -18.14,8.782 -27.03,13.621 9.75,-2.711 19.26,-6.031 28.89,-9.019 z m 42.1,-229.774 c -2.08,-4.66 -3.4,-7.277 -3.4,-7.277 0,0 0.48,2.891 1.54,7.879 1.16,4.961 2.53,12.129 4.69,20.57 4.17,16.918 10.56,39.219 17.71,61.282 7.21,22.027 15.18,43.808 21.77,59.949 3.23,8.09 6.33,14.699 8.31,19.39 2.07,4.661 3.39,7.278 3.39,7.278 0,0 -0.48,-2.891 -1.55,-7.879 -1.16,-4.961 -2.54,-12.121 -4.7,-20.559 -4.17,-16.929 -10.55,-39.23 -17.69,-61.293 -7.2,-22.027 -15.17,-43.816 -21.76,-59.957 -3.22,-8.09 -6.34,-14.703 -8.31,-19.383 z m -37.48,248.582 c 10.04,-3.07 19.98,-6.378 29.98,-9.562 16.58,-5.238 32.97,-11.027 49.32,-16.887 -7.05,18.508 -13.93,37.09 -20.38,55.84 l -11.17,33.277 c -3.4,11.223 -7.06,22.34 -10.14,33.68 5.28,-10.5 9.97,-21.226 14.91,-31.848 l 13.89,-32.25 c 9.09,-21.558 17.67,-43.32 25.95,-65.191 l 3.89,-10.269 -10.24,3.839 c -19.62,7.36 -39.24,14.75 -58.58,22.879 -9.67,4.051 -19.39,7.973 -29.03,12.133 -9.57,4.34 -19.24,8.41 -28.71,13.027 10.2,-2.617 20.21,-5.777 30.31,-8.668 z M 2106.2,519.531 c -30.02,-4.402 -60.17,-8.011 -82.87,-10.082 -11.34,-1.097 -20.85,-1.597 -27.48,-2.14 -6.64,-0.45 -10.46,-0.571 -10.46,-0.571 0,0 3.69,0.992 10.18,2.492 6.5,1.391 15.75,3.668 26.93,5.891 22.33,4.59 52.22,9.848 82.24,14.328 30.02,4.403 60.16,8.02 82.87,10.09 11.33,1.109 20.85,1.59 27.48,2.133 6.64,0.449 10.46,0.558 10.46,0.558 0,0 -3.69,-0.992 -10.18,-2.492 -6.5,-1.386 -15.75,-3.679 -26.92,-5.898 -22.33,-4.59 -52.23,-9.852 -82.25,-14.309 z M 1943.35,927.57 c 0,10.18 8.25,18.43 18.42,18.43 10.18,0 18.43,-8.25 18.43,-18.43 0,-10.172 -8.25,-18.422 -18.43,-18.422 -10.17,0 -18.42,8.25 -18.42,18.422 z m -251.44,61.602 c 7.33,26.098 26.74,44.128 45.79,44.138 2.67,0 5.33,-0.36 7.96,-1.09 21.33,-5.99 31.86,-34.958 23.51,-64.72 -7.32,-26.102 -26.74,-44.141 -45.79,-44.141 -2.67,0 -5.33,0.352 -7.95,1.09 -21.34,5.981 -31.86,34.961 -23.52,64.723 z m -114.6,-61.602 c 0,-10.172 -8.25,-18.422 -18.42,-18.422 -10.18,0 -18.43,8.25 -18.43,18.422 0,10.18 8.25,18.43 18.43,18.43 10.17,0 18.42,-8.25 18.42,-18.43 z m -185,-563.351 c -0.69,-3.938 -1.39,-7.949 -2.11,-12.039 -1.46,-8.731 -2.37,-17.84 -3.62,-27.078 -1.22,-9.243 -1.65,-18.704 -2.51,-28.161 -0.65,-9.461 -0.77,-18.972 -1.14,-28.332 0.15,-7.629 0.11,-15.14 0.35,-22.507 h -14.6 c -0.28,50.007 -2.15,103.019 -10.88,137.796 -2.61,10.411 -8.81,25.18 -19.13,37.571 1.41,9.332 3.01,17.23 4.01,23.269 1.48,8.332 2.32,13.082 2.32,13.082 0,0 -1.3,-4.648 -3.58,-12.789 -1.43,-5.34 -3.51,-12.269 -5.61,-20.32 -8.44,9.078 -19.28,16.437 -32.88,19.027 -5.63,1.051 -11.28,1.992 -16.92,2.961 0.62,3.371 0.99,5.379 0.99,5.379 0,0 -0.54,-1.976 -1.45,-5.297 -16.24,2.789 -32.53,5.239 -48.85,7.34 l -13.82,18.66 c 3.92,3.61 8.51,6.27 13.89,6.68 20.75,1.508 41.55,2.25 62.36,2.48 91.58,-29.132 93.16,-85.121 93.18,-117.722 z M 958.746,192.84 c -1.758,15.672 -2.949,31.449 -3.418,46.371 l 56.892,-32.852 -56.294,72.879 c 0.832,14.231 2.262,28.891 4.129,43.192 l 58.685,-33.879 -53.127,68.769 c 2.864,14.981 6.121,28.539 9.543,39.399 0.438,1.39 0.985,2.941 1.637,4.59 l 53.437,-30.848 -40.187,52.027 c 4.531,4.492 9.997,7.774 16.417,8.262 27.12,1.98 54.29,2.969 81.48,2.969 60.88,0 121.87,-4.969 182.65,-14.879 l -39.28,-45.211 68.27,32.492 c -8.52,-14.832 -14.62,-32.242 -18.95,-50.98 l -57.26,-65.922 50.37,23.98 c -1.98,-18.289 -2.93,-36.847 -3.31,-54.668 l -47.06,-54.172 46.85,22.301 c 0.1,-16.359 0.55,-33.68 1.77,-51.199 l -48.62,-55.961 51.73,24.621 c 1.87,-14.051 4.45,-27.859 7.92,-41.062 -27.64,-5.6879 -54.28,-9.1606 -79.61,-10.9184 -0.5,1.5703 -1,3.0586 -1.5,4.7891 -1.9,5.8083 -3.49,12.5903 -5.42,19.9103 -1.6,7.43 -3.6,15.43 -4.99,24.07 -1.69,8.59 -2.92,17.75 -4.16,27.25 -1.35,9.488 -1.9,19.399 -2.93,29.449 -0.4,10.082 -1.11,20.34 -1.24,30.621 0.11,10.282 -0.27,20.602 0.24,30.731 0.54,10.129 0.73,20.148 1.54,29.801 0.9,9.648 1.76,18.988 2.58,27.84 1.21,8.82 2.35,17.148 3.41,24.847 1.86,15.461 4.83,28.09 6.36,37.063 1.69,8.929 2.66,14.039 2.66,14.039 0,0 -1.36,-5.012 -3.73,-13.789 -2.21,-8.821 -6.17,-21.262 -9.23,-36.582 -1.65,-7.641 -3.44,-15.918 -5.34,-24.68 -1.51,-8.852 -3.11,-18.18 -4.76,-27.828 -1.57,-9.672 -2.54,-19.762 -3.89,-29.992 -1.3,-10.231 -1.73,-20.711 -2.65,-31.18 -0.67,-10.469 -0.76,-20.988 -1.13,-31.352 0.24,-10.359 0.03,-20.589 0.66,-30.468 0.52,-9.891 1.07,-19.469 2.14,-28.532 0.75,-9.089 2.19,-17.617 3.27,-25.539 1.43,-7.879 2.56,-15.1402 4.11,-21.5192 0.01,-0.0585 0.03,-0.121 0.04,-0.1796 -15.72,-0.4688 -30.87,-0.3399 -45.32,0.289 -2.7,8.1406 -5.86,18.8708 -9.06,31.8128 -1.59,7.648 -3.74,15.867 -5.16,24.758 -1.71,8.832 -3.18,18.218 -4.39,28 -1.55,9.75 -2.12,19.941 -3.22,30.269 -0.75,10.352 -1.19,20.91 -1.69,31.481 -0.01,10.582 -0.29,21.179 -0.08,31.621 0.43,10.449 0.86,20.73 1.27,30.679 0.84,9.942 1.66,19.551 2.44,28.66 0.86,9.122 2.25,17.668 3.24,25.61 1.06,7.941 1.92,15.238 3.23,21.609 1.17,6.41 2.19,12 3.03,16.602 1.68,9.211 2.64,14.48 2.64,14.48 0,0 -1.42,-5.16 -3.9,-14.191 -1.24,-4.52 -2.75,-10.008 -4.49,-16.309 -1.87,-6.269 -3.38,-13.492 -5.14,-21.34 -1.68,-7.871 -3.84,-16.351 -5.52,-25.429 -1.59,-9.121 -3.27,-18.731 -5,-28.672 -1.3,-10.031 -2.65,-20.391 -4.02,-30.922 -1.14,-10.559 -1.81,-21.348 -2.74,-32.148 -0.46,-10.801 -0.95,-21.641 -1.11,-32.329 0.18,-10.679 -0.14,-21.242 0.56,-31.429 0.36,-10.211 1.03,-20.082 1.99,-29.434 0.68,-9.387 2.15,-18.187 3.12,-26.379 1.45,-9.359 3,-17.687 4.52,-24.9998 -13.61,1.2422 -26.43,2.8711 -38.42,4.7227 -0.71,2.1601 -1.43,4.3871 -2.16,6.8671 -1.89,5.813 -3.48,12.582 -5.42,19.91 -1.59,7.422 -3.6,15.43 -4.98,24.071 -1.69,8.589 -2.93,17.75 -4.17,27.25 -1.35,9.492 -1.89,19.402 -2.92,29.449 -0.4,10.082 -1.12,20.34 -1.25,30.621 0.11,10.281 -0.27,20.601 0.24,30.73 0.55,10.129 0.73,20.149 1.55,29.801 0.89,9.649 1.76,18.988 2.58,27.84 1.2,8.809 2.35,17.148 3.4,24.848 1.87,15.461 4.84,28.089 6.37,37.062 1.69,8.93 2.65,14.039 2.65,14.039 0,0 -1.35,-5.012 -3.72,-13.789 -2.22,-8.82 -6.17,-21.262 -9.24,-36.582 -1.65,-7.641 -3.44,-15.93 -5.33,-24.68 -1.52,-8.847 -3.11,-18.179 -4.76,-27.828 -1.58,-9.672 -2.55,-19.761 -3.89,-29.992 -1.31,-10.23 -1.74,-20.711 -2.65,-31.18 -0.68,-10.468 -0.76,-20.988 -1.14,-31.347 0.25,-10.364 0.04,-20.59 0.67,-30.473 0.52,-9.898 1.07,-19.48 2.13,-28.527 0.76,-9.09 2.19,-17.633 3.27,-25.543 1.2,-6.547 2.22,-12.539 3.4,-18.078 -33.18,6.578 -57.352,14.238 -69.739,18.429 -2.164,8.77 -4.199,18.508 -6.066,28.801 l 48.875,-28.223 z m 963.364,271.32 c 0,-15.379 -12.46,-27.84 -27.84,-27.84 -15.38,0 -27.84,12.461 -27.84,27.84 0,15.371 12.46,27.84 27.84,27.84 15.38,0 27.84,-12.469 27.84,-27.84 z m 813.41,93 c -40.58,5.281 -81.73,7.949 -122.41,7.949 -40.68,0 -81.85,-2.668 -122.35,-7.937 -15.16,-2.024 -26.99,-10.863 -35.73,-22.043 l -190.64,63.851 15.11,166.219 c 1.59,17.5 -8.4,34.012 -24.65,40.723 l -10.31,4.258 v 18.05 c 0,2.77 -2.24,5.008 -5.01,5.008 -2.78,0 -5.02,-2.238 -5.02,-5.008 v -13.91 l -17.69,7.301 v 6.609 c 0,2.77 -2.24,5.008 -5.01,5.008 -2.77,0 -5.02,-2.238 -5.02,-5.008 v -2.46 l -218.97,90.421 c 1.53,3.489 2.41,7.329 2.41,11.379 0,15.692 -12.77,28.461 -28.46,28.461 -15.69,0 -28.46,-12.769 -28.46,-28.461 0,-0.8 0.18,-1.558 0.24,-2.351 l -31.35,0.222 v 16.118 c 0,2.769 -2.24,5.011 -5.02,5.011 -2.77,0 -5.01,-2.242 -5.01,-5.011 v -16.047 l -9.72,0.066 v 15.981 c 0,2.769 -2.25,5.011 -5.02,5.011 -2.77,0 -5.01,-2.242 -5.01,-5.011 v -15.911 l -63.63,0.442 v 15.89 c 0.74,0.54 1.34,1.25 1.69,2.129 0.68,1.661 0.42,3.571 -0.69,4.981 l -27.84,35.48 c 1.02,27.44 -12.03,51.26 -33.58,57.31 -3.46,0.97 -7.05,1.46 -10.66,1.46 h -0.01 c -24.15,0 -46.95,-21.17 -55.45,-51.461 -4.6,-16.399 -4.29,-33.238 0.86,-47.41 2.51,-6.91 6.07,-12.778 10.4,-17.571 l -80.23,0.571 v 16.801 c 0,2.769 -2.24,5.019 -5.01,5.019 -2.77,0 -5.02,-2.25 -5.02,-5.019 v -16.739 l -15.91,0.117 c -0.05,15.653 -12.79,28.383 -28.45,28.383 -15.69,0 -28.46,-12.769 -28.46,-28.461 0,-7.269 2.82,-13.84 7.32,-18.879 -0.37,-0.601 -0.8,-1.16 -1.14,-1.793 L 1442.7,735.379 c -4.39,-8 -5.91,-17.25 -4.33,-26.238 l 14.24,-80.801 -316.05,-68.051 c -15.04,-3.23 -25.22,-17.301 -23.6,-32.609 1.63,-15.301 14.54,-26.91 29.94,-26.91 23.32,0 44.47,-0.821 63.63,-2.34 -12.51,-9.7 -21.09,-24.34 -25.9,-38.43 -30.95,2.488 -61.89,3.82 -92.68,3.82 -27.82,0 -55.97,-1.019 -83.69,-3.05 -25.319,-1.93 -42.881,-21.149 -52.67,-41.93 l -1.735,-1.981 0.657,-0.379 c -1.574,-3.57 -2.946,-7.171 -4.063,-10.718 -12.437,-39.481 -21.461,-103.934 -21.461,-153.242 0,-49.239 8.989,-114.532 21.371,-155.2505 3.641,-11.9687 18.317,-51.5312 54.471,-58.4101 71.26,-13.3281 143.56,-20.0899 215,-20.0899 27.81,0 55.96,1.0313 83.68,3.0586 30.61,2.3321 51.63,30.9336 58.24,56.5117 2.16,8.3594 3.85,18.0118 5.25,28.3402 20.96,-1.258 41.89,-1.969 62.74,-1.969 25.16,0 50.64,0.93 75.72,2.758 29.08,2.222 48.97,29.133 55.19,53.203 2.34,9.047 4.11,19.617 5.5,31.098 18.05,-1.04 36.08,-1.739 54.03,-1.739 22.79,0 45.86,0.84 68.56,2.5 27.69,2.11 46.57,27.5 52.44,50.199 5.62,21.719 7.81,52.54 8.64,84.309 h 15.7 c 16.31,0 29.64,12.992 30.09,29.281 l 3.1,112.942 57.11,-0.793 c -0.15,-1.438 -0.44,-2.84 -0.44,-4.309 0,-23.648 19.24,-42.89 42.89,-42.89 23.65,0 42.89,19.242 42.89,42.89 0,1.07 -0.24,2.07 -0.32,3.121 l 48.68,-0.679 c -18.48,-32.403 -21.58,-71.832 -21.58,-114.114 V 205.961 c 0,-16.621 13.47,-30.09 30.09,-30.09 h 32.2 c 3.34,-39.301 10.46,-80.7108 19.34,-109.4218 7.69,-24.8398 26.46,-52.789 56.08,-56.73826 C 2151.17,3.26172 2201.41,0 2251.05,0 c 49.65,0 99.89,3.26172 149.31,9.69141 34.14,4.54689 51.62,38.74999 56.58,58.23049 2.3,9.0195 4.1,19.3867 5.54,30.5781 36.62,0.8984 73.41,3.629 109.73,8.359 32.37,4.313 48.87,36.442 53.53,54.743 2.45,9.617 4.27,20.91 5.67,33.117 34.69,0.679 69.59,3.16 104.02,7.64 30.78,4.102 46.39,34.36 50.78,51.59 8.02,31.492 9.1,81.27 9.1,125.821 0,44.55 -1.08,94.339 -9.1,125.82 -4.39,17.23 -20.01,47.488 -50.69,51.57" style="fill:#3f3f3f;fill-opacity:1;fill-rule:nonzero;stroke:none" transform="matrix(0.13333333,0,0,-0.13333333,0,567.85333)"/>
    <path d="m 1586.73,444.719 c 13.18,0 23.87,10.691 23.87,23.871 0,13.18 -10.69,-8.371 -23.87,-8.371 -13.18,0 -23.87,21.551 -23.87,8.371 0,-13.18 10.69,-23.871 23.87,-23.871" style="fill:#3f3f3f;fill-opacity:1;fill-rule:nonzero;stroke:none" transform="matrix(0.13333333,0,0,-0.13333333,0,567.85333)"/>
    <path d="m 1894.27,454.551 c -13.18,0 -23.87,22.789 -23.87,9.609 0,-13.191 10.69,-23.871 23.87,-23.871 13.18,0 23.87,10.68 23.87,23.871 0,13.18 -10.69,-9.609 -23.87,-9.609" style="fill:#3f3f3f;fill-opacity:1;fill-rule:nonzero;stroke:none" transform="matrix(0.13333333,0,0,-0.13333333,0,567.85333)"/>
    <path d="m 1961.77,912.559 c 8.29,0 15.01,6.722 15.01,15.011 0,8.289 -6.72,0 -15.01,0 -8.29,0 -15,8.289 -15,0 0,-8.289 6.71,-15.011 15,-15.011" style="fill:#3f3f3f;fill-opacity:1;fill-rule:nonzero;stroke:none" transform="matrix(0.13333333,0,0,-0.13333333,0,567.85333)"/>
    <path d="m 1543.88,927.57 c 0,-8.289 6.72,-15.011 15.01,-15.011 8.29,0 15.01,6.722 15.01,15.011 0,8.289 -6.72,0 -15.01,0 -8.29,0 -15.01,8.289 -15.01,0" style="fill:#3f3f3f;fill-opacity:1;fill-rule:nonzero;stroke:none" transform="matrix(0.13333333,0,0,-0.13333333,0,567.85333)"/>
    <path d="m 1570.24,820.309 8.54,-32.668 -36.5,-15.911 z m 7.03,52.441 -82.71,-143.711 107.98,47.07 -25.27,96.641" style="fill:#3f3f3f;fill-opacity:1;fill-rule:nonzero;stroke:none" transform="matrix(0.13333333,0,0,-0.13333333,0,567.85333)"/>
    <path d="m 1826.39,798.422 h -188.13 l -15.72,60.109 250.82,0.539 z m -203.63,-20.063 h 213.46 l 78.13,100.86 -317.79,-0.68 26.2,-100.18" style="fill:#3f3f3f;fill-opacity:1;fill-rule:nonzero;stroke:none" transform="matrix(0.13333333,0,0,-0.13333333,0,567.85333)"/>
    <path d="m 1776.35,540.84 -84.68,1.941 -34.21,70.61 h 153.58 z m -97.39,-17.84 109.9,-2.512 54.02,112.973 H 1625.44 L 1678.96,523" style="fill:#3f3f3f;fill-opacity:1;fill-rule:nonzero;stroke:none" transform="matrix(0.13333333,0,0,-0.13333333,0,567.85333)"/>
    <path d="m 1640.09,674.699 4.31,62.422 h 173.64 l 4.63,-62.422 z m -14.42,82.492 -7.07,-102.562 h 225.68 l -7.61,102.562 h -211" style="fill:#3f3f3f;fill-opacity:1;fill-rule:nonzero;stroke:none" transform="matrix(0.13333333,0,0,-0.13333333,0,567.85333)"/>
    <path d="m 1584.91,687.449 -40.61,21.68 43.63,17.09 z m -88.46,24.481 106.09,-56.641 7.87,101.289 -113.96,-44.648" style="fill:#3f3f3f;fill-opacity:1;fill-rule:nonzero;stroke:none" transform="matrix(0.13333333,0,0,-0.13333333,0,567.85333)"/>
    <path d="m 1672.04,826.379 c 6.3,5.582 12.22,11.57 16.37,16.422 4.12,4.859 6.55,8.461 6.55,8.461 0,0 -3.88,-1.961 -9.22,-5.442 -5.32,-3.5 -12.02,-8.629 -18.34,-14.179 -6.29,-5.582 -12.22,-11.582 -16.36,-16.43 -4.12,-4.859 -6.56,-8.449 -6.56,-8.449 0,0 3.87,1.968 9.22,5.437 5.32,3.512 12.01,8.629 18.34,14.18" style="fill:#3f3f3f;fill-opacity:1;fill-rule:nonzero;stroke:none" transform="matrix(0.13333333,0,0,-0.13333333,0,567.85333)"/>
    <path d="m 1673.23,818.23 c -3.27,-3.691 -5.18,-6.441 -5.18,-6.441 0,0 2.98,1.551 7.04,4.332 4.05,2.777 9.29,6.68 14.15,11.008 4.9,4.281 9.44,8.98 12.7,12.66 3.26,3.68 5.17,6.441 5.17,6.441 0,0 -2.97,-1.55 -7.03,-4.32 -4.06,-2.781 -9.29,-6.691 -14.15,-11.019 -4.91,-4.282 -9.43,-8.993 -12.7,-12.661" style="fill:#3f3f3f;fill-opacity:1;fill-rule:nonzero;stroke:none" transform="matrix(0.13333333,0,0,-0.13333333,0,567.85333)"/>
    <path d="m 1716.9,929.699 c 19.25,-5.398 40.97,12 48.5,38.852 7.54,26.859 -1.96,53.009 -21.22,58.409 -19.25,5.4 5.23,-19.56 -4.37,-51.651 -7.99,-26.719 -42.16,-40.207 -22.91,-45.61" style="fill:#3f3f3f;fill-opacity:1;fill-rule:nonzero;stroke:none" transform="matrix(0.13333333,0,0,-0.13333333,0,567.85333)"/>
    <path d="m 819.238,1159.06 c 0.028,0 0.039,0.08 0.032,0.23 l -0.032,-0.23" style="fill:#3f3f3f;fill-opacity:1;fill-rule:nonzero;stroke:none" transform="matrix(0.13333333,0,0,-0.13333333,0,567.85333)"/>
</svg>